# xmcd
#
# Track frame offsets:
#	150
#	18043
#	35404
#	49659
#	64814
#	81903
#	97211
#	112981
#	129762
#	145133
#	161386
#	174865
#	186359
#	203206
#
# Disc length: 2878
#
# Revision: 1
# Processed by: cddbd v1.5.1PL0 Copyright (c) Steve Scherf et al.
# Submitted via: CDex 1.50beta9
# Normalized: r0:TDELIM( - )
#
DISCID=b20b3c0e
DTITLE=Various Artist - Hitz - Country - 2004 Vol 5
DYEAR=2004
DGENRE=Country
TTITLE0=Kenny Chesney - I Go Back
TTITLE1=Martina McBride - How Far
TTITLE2=Trace Adkins - Rough and Ready
TTITLE3=Big and Rich - Save A Horse (Ride A Cowboy)
TTITLE4=Sara Evans - Suds In The Bucket
TTITLE5=Trent Willmon - Beer Man
TTITLE6=Phil Vassar - In A Real Love
TTITLE7=Jimmy Wayne - You Are
TTITLE8=Carolyn Dawn Johnson - Die of a Broken Heart
TTITLE9=Scotty Emerick - The Watch
TTITLE10=Sherrie Austin - Son of a Preacher Man
TTITLE11=Craig Morgan - Look At Us
TTITLE12=Dierks Bentley - How Am I Doin'
TTITLE13=Travis Tritt - The Girl's Gone Wild
EXTD=YEAR: 2004
EXTT0=
EXTT1=
EXTT2=
EXTT3=
EXTT4=
EXTT5=
EXTT6=
EXTT7=
EXTT8=
EXTT9=
EXTT10=
EXTT11=
EXTT12=
EXTT13=
PLAYORDER=
